<svg width="1217" height="4640" viewBox="0 0 1217 4640" fill="none" preserveAspectRatio="xMinYMin meet" xmlns="http://www.w3.org/2000/svg">
<path d="M927.57 219.339L927.784 219.896L928.295 219.587L1095.84 118.278L996.533 287.018L996.231 287.534L996.791 287.741L1180.46 355.569L986.617 383.136L986.025 383.22L986.212 383.787L1047.7 569.676L905.288 435.311L904.853 434.9L904.526 435.401L797.527 599.371L813.787 404.255L813.837 403.658L813.241 403.715L618.33 422.294L781.019 313.353L781.515 313.021L781.099 312.591L645.048 171.787L831.656 231.058L832.226 231.239L832.303 230.647L857.56 36.4871L927.57 219.339Z" stroke="#BCEC30"/>
<path d="M1101.2 1487.3L1101.26 1487.52L1101.47 1487.62L1124.39 1498.68L1099.79 1505.2L1099.57 1505.26L1099.47 1505.47L1088.41 1528.38L1081.89 1503.79L1081.83 1503.57L1081.62 1503.47L1058.7 1492.41L1083.3 1485.89L1083.52 1485.83L1083.62 1485.62L1094.68 1462.7L1101.2 1487.3Z" stroke="#BCEC30"/>
<path d="M21.2177 663.404L21.277 663.625L21.4843 663.725L31.2511 668.436L20.7698 671.218L20.5473 671.277L20.4471 671.484L15.735 681.251L12.9548 670.77L12.8955 670.547L12.6893 670.447L2.92158 665.735L13.4037 662.955L13.6252 662.895L13.7253 662.689L18.4365 652.921L21.2177 663.404Z" stroke="#BCEC30"/>
<path d="M99.3237 770.256L99.383 770.478L99.5903 770.577L117.508 779.222L98.2795 784.324L98.057 784.383L97.9568 784.59L89.3126 802.508L84.2106 783.279L84.1523 783.057L83.9451 782.957L66.0265 774.312L85.2559 769.21L85.4783 769.152L85.5775 768.945L94.2218 751.026L99.3237 770.256Z" stroke="#BCEC30"/>
<path d="M1198.41 1491.6L1198.47 1491.82L1198.67 1491.93L1209.61 1497.59L1197.62 1500.41L1197.39 1500.47L1197.29 1500.67L1191.62 1511.61L1188.8 1499.62L1188.74 1499.39L1188.54 1499.29L1177.6 1493.62L1189.6 1490.8L1189.82 1490.74L1189.93 1490.54L1195.59 1479.6L1198.41 1491.6Z" stroke="#BCEC30"/>
<path d="M1130.35 4443.36L1130.43 4443.57L1130.64 4443.65L1154.56 4452.5L1130.64 4461.35L1130.43 4461.43L1130.35 4461.64L1121.5 4485.56L1112.65 4461.64L1112.57 4461.43L1112.36 4461.35L1088.44 4452.5L1112.36 4443.65L1112.57 4443.57L1112.65 4443.36L1121.5 4419.44L1130.35 4443.36Z" stroke="#BCEC30"/>
<path d="M1038.57 4614.14L1038.65 4614.35L1038.86 4614.43L1052.56 4619.5L1038.86 4624.57L1038.65 4624.65L1038.57 4624.86L1033.5 4638.56L1028.43 4624.86L1028.35 4624.65L1028.14 4624.57L1014.44 4619.5L1028.14 4614.43L1028.35 4614.35L1028.43 4614.14L1033.5 4600.44L1038.57 4614.14Z" stroke="#BCEC30"/>
</svg>
